<svg width="25" height="25" viewBox="0 0 25 25" fill="none" xmlns="http://www.w3.org/2000/svg">
<path d="M23.355 11.245H22.4532C22.3521 10.0115 22.029 8.80638 21.4996 7.68769L22.2813 7.23681C22.48 7.1221 22.6251 6.93315 22.6845 6.71152C22.7439 6.48988 22.7128 6.25373 22.5981 6.055C22.4834 5.85627 22.2945 5.71125 22.0728 5.65184C21.8512 5.59242 21.615 5.62349 21.4163 5.73819L20.6324 6.19124C19.9249 5.17661 19.0434 4.29514 18.0288 3.58759L18.4818 2.80368C18.5965 2.60495 18.6276 2.3688 18.5682 2.14717C18.5088 1.92553 18.3637 1.73658 18.165 1.62187C17.9663 1.50717 17.7301 1.47611 17.5085 1.53552C17.2869 1.59493 17.0979 1.73995 16.9832 1.93868L16.5323 2.72042C15.4136 2.19098 14.2085 1.86791 12.975 1.76676V0.865C12.975 0.635588 12.8839 0.415572 12.7216 0.253353C12.5594 0.0911336 12.3394 0 12.11 0C11.8806 0 11.6606 0.0911336 11.4984 0.253353C11.3361 0.415572 11.245 0.635588 11.245 0.865V1.76676C10.0115 1.86791 8.80638 2.19098 7.68769 2.72042L7.23681 1.93868C7.1221 1.73995 6.93315 1.59493 6.71152 1.53552C6.48988 1.47611 6.25373 1.50717 6.055 1.62187C5.85627 1.73658 5.71125 1.92553 5.65184 2.14717C5.59242 2.3688 5.62349 2.60495 5.73819 2.80368L6.19124 3.58759C5.17661 4.29514 4.29514 5.17661 3.58759 6.19124L2.80368 5.73819C2.70528 5.6814 2.59666 5.64454 2.48401 5.62972C2.37137 5.6149 2.25691 5.62242 2.14717 5.65184C1.92553 5.71125 1.73658 5.85627 1.62187 6.055C1.50717 6.25373 1.47611 6.48988 1.53552 6.71152C1.59493 6.93315 1.73995 7.1221 1.93868 7.23681L2.72042 7.68769C2.19098 8.80638 1.86791 10.0115 1.76676 11.245H0.865C0.635588 11.245 0.415572 11.3361 0.253353 11.4984C0.0911336 11.6606 0 11.8806 0 12.11C0 12.3394 0.0911336 12.5594 0.253353 12.7216C0.415572 12.8839 0.635588 12.975 0.865 12.975H1.76676C1.86791 14.2085 2.19098 15.4136 2.72042 16.5323L1.93868 16.9832C1.77368 17.0784 1.6447 17.2253 1.57177 17.4013C1.49883 17.5772 1.48602 17.7724 1.53531 17.9564C1.58461 18.1403 1.69325 18.3029 1.84439 18.4188C1.99553 18.5348 2.1807 18.5976 2.37118 18.5975C2.52306 18.598 2.67232 18.558 2.80368 18.4818L3.58759 18.0288C4.29514 19.0434 5.17661 19.9249 6.19124 20.6324L5.73819 21.4163C5.62349 21.615 5.59242 21.8512 5.65184 22.0728C5.71125 22.2945 5.85627 22.4834 6.055 22.5981C6.25373 22.7128 6.48988 22.7439 6.71152 22.6845C6.93315 22.6251 7.1221 22.48 7.23681 22.2813L7.68769 21.4996C8.80638 22.029 10.0115 22.3521 11.245 22.4532V23.355C11.245 23.5844 11.3361 23.8044 11.4984 23.9666C11.6606 24.1289 11.8806 24.22 12.11 24.22C12.3394 24.22 12.5594 24.1289 12.7216 23.9666C12.8839 23.8044 12.975 23.5844 12.975 23.355V22.4532C14.2085 22.3521 15.4136 22.029 16.5323 21.4996L16.9832 22.2813C17.0979 22.48 17.2869 22.6251 17.5085 22.6845C17.7301 22.7439 17.9663 22.7128 18.165 22.5981C18.3637 22.4834 18.5088 22.2945 18.5682 22.0728C18.6276 21.8512 18.5965 21.615 18.4818 21.4163L18.0288 20.6324C19.0434 19.9249 19.9249 19.0434 20.6324 18.0288L21.4163 18.4818C21.5147 18.5386 21.6233 18.5755 21.736 18.5903C21.8486 18.6052 21.9631 18.5976 22.0729 18.5682C22.1826 18.5388 22.2855 18.4881 22.3756 18.4189C22.4657 18.3497 22.5413 18.2634 22.5981 18.165C22.713 17.9664 22.7442 17.7303 22.685 17.5087C22.6258 17.2871 22.481 17.098 22.2824 16.9832L21.5007 16.5323C22.0301 15.4136 22.3532 14.2085 22.4543 12.975H23.355C23.5844 12.975 23.8044 12.8839 23.9666 12.7216C24.1289 12.5594 24.22 12.3394 24.22 12.11C24.22 11.8806 24.1289 11.6606 23.9666 11.4984C23.8044 11.3361 23.5844 11.245 23.355 11.245ZM6.055 12.11C6.05455 11.1937 6.26243 10.2892 6.66292 9.465C7.0634 8.6408 7.64601 7.91843 8.36671 7.3525L11.1109 12.11L8.36671 16.8675C7.64601 16.3016 7.0634 15.5792 6.66292 14.755C6.26243 13.9308 6.05455 13.0263 6.055 12.11ZM12.11 18.165C11.3403 18.1658 10.5776 18.019 9.86316 17.7325L12.6095 12.975H18.1023C17.8924 14.4151 17.1716 15.7318 16.0715 16.6846C14.9714 17.6374 13.5654 18.1628 12.11 18.165ZM12.6095 11.245L9.86316 6.4875C10.7137 6.14772 11.6303 6.00531 12.5438 6.07102C13.4573 6.13672 14.3441 6.40881 15.1373 6.86681C15.9304 7.32481 16.6094 7.95678 17.1229 8.71514C17.6365 9.4735 17.9714 10.3385 18.1023 11.245H12.6095Z" fill="#B18FCF"/>
</svg>
