<svg width="25" height="25" viewBox="0 0 25 25" fill="none" xmlns="http://www.w3.org/2000/svg">
<path d="M8.75 12.5C9.73891 12.5 10.7056 12.1334 11.5279 11.4467C12.3501 10.7599 12.991 9.78381 13.3694 8.64177C13.7478 7.49974 13.8469 6.24307 13.6539 5.03069C13.461 3.81831 12.9848 2.70466 12.2855 1.83059C11.5863 0.956507 10.6954 0.361252 9.72545 0.120095C8.75555 -0.121063 7.75021 0.00270799 6.83658 0.475756C5.92295 0.948803 5.14206 1.74988 4.59265 2.77769C4.04324 3.8055 3.75 5.01387 3.75 6.25C3.75 7.90761 4.27678 9.49732 5.21447 10.6694C6.15215 11.8415 7.42392 12.5 8.75 12.5ZM12.5 15.625C12.5028 15.1031 12.6117 14.5906 12.8164 14.1357C12.6289 14.1113 12.4453 14.0625 12.25 14.0625H11.5977C10.7048 14.5772 9.73324 14.8437 8.75 14.8437C7.76676 14.8437 6.79521 14.5772 5.90234 14.0625H5.25C3.85771 14.0629 2.52253 14.7544 1.53803 15.985C0.553534 17.2157 0.000310675 18.8846 0 20.625L0 22.6563C0 23.2779 0.197544 23.874 0.549175 24.3135C0.900806 24.7531 1.37772 25 1.875 25H12.8477C12.623 24.5269 12.503 23.9877 12.5 23.4375V15.625ZM23.75 14.0625H22.5V10.1563C22.5 9.12025 22.1708 8.12668 21.5847 7.39412C20.9987 6.66155 20.2038 6.25 19.375 6.25C18.5462 6.25 17.7513 6.66155 17.1653 7.39412C16.5792 8.12668 16.25 9.12025 16.25 10.1563V14.0625H15C14.6685 14.0625 14.3505 14.2271 14.1161 14.5201C13.8817 14.8132 13.75 15.2106 13.75 15.625V23.4375C13.75 23.8519 13.8817 24.2493 14.1161 24.5424C14.3505 24.8354 14.6685 25 15 25H23.75C24.0815 25 24.3995 24.8354 24.6339 24.5424C24.8683 24.2493 25 23.8519 25 23.4375V15.625C25 15.2106 24.8683 14.8132 24.6339 14.5201C24.3995 14.2271 24.0815 14.0625 23.75 14.0625ZM19.375 21.0938C19.1278 21.0938 18.8861 21.0021 18.6805 20.8304C18.475 20.6587 18.3148 20.4147 18.2201 20.1292C18.1255 19.8437 18.1008 19.5295 18.149 19.2264C18.1972 18.9233 18.3163 18.6449 18.4911 18.4264C18.6659 18.2079 18.8887 18.0591 19.1311 17.9988C19.3736 17.9385 19.6249 17.9694 19.8534 18.0877C20.0818 18.206 20.277 18.4062 20.4143 18.6632C20.5517 18.9201 20.625 19.2222 20.625 19.5313C20.625 19.9457 20.4933 20.3431 20.2589 20.6361C20.0245 20.9291 19.7065 21.0938 19.375 21.0938ZM20.625 14.0625H18.125V10.1563C18.125 9.74185 18.2567 9.34442 18.4911 9.0514C18.7255 8.75837 19.0435 8.59375 19.375 8.59375C19.7065 8.59375 20.0245 8.75837 20.2589 9.0514C20.4933 9.34442 20.625 9.74185 20.625 10.1563V14.0625Z" fill="#B18FCF"/>
</svg>
