<svg width="19" height="19" viewBox="0 0 19 19" fill="none" xmlns="http://www.w3.org/2000/svg">
<path d="M8.35317 17.4356C8.35317 17.6364 8.27343 17.8289 8.13149 17.9708C7.98955 18.1128 7.79703 18.1925 7.5963 18.1925H1.5413C1.34056 18.1925 1.14805 18.1128 1.00611 17.9708C0.864166 17.8289 0.784424 17.6364 0.784424 17.4356V0.784375C0.784424 0.583639 0.864166 0.391125 1.00611 0.249184C1.14805 0.107242 1.34056 0.0275002 1.5413 0.0275002H7.5963C7.79703 0.0275002 7.98955 0.107242 8.13149 0.249184C8.27343 0.391125 8.35317 0.583639 8.35317 0.784375C8.35317 0.985111 8.27343 1.17762 8.13149 1.31957C7.98955 1.46151 7.79703 1.54125 7.5963 1.54125H2.29817V16.6787H7.5963C7.79703 16.6787 7.98955 16.7585 8.13149 16.9004C8.27343 17.0424 8.35317 17.2349 8.35317 17.4356ZM18.728 8.57451L14.9437 4.79014C14.8378 4.68416 14.7029 4.61198 14.556 4.58273C14.4091 4.55348 14.2568 4.56847 14.1184 4.6258C13.9801 4.68314 13.8618 4.78024 13.7787 4.90482C13.6955 5.02939 13.6512 5.17584 13.6513 5.32562V8.35312H7.5963C7.39556 8.35312 7.20305 8.43287 7.06111 8.57481C6.91917 8.71675 6.83942 8.90926 6.83942 9.11C6.83942 9.31074 6.91917 9.50325 7.06111 9.64519C7.20305 9.78713 7.39556 9.86687 7.5963 9.86687H13.6513V12.8944C13.6512 13.0442 13.6955 13.1906 13.7787 13.3152C13.8618 13.4398 13.9801 13.5369 14.1184 13.5942C14.2568 13.6515 14.4091 13.6665 14.556 13.6373C14.7029 13.608 14.8378 13.5358 14.9437 13.4299L18.728 9.64549C18.7984 9.5752 18.8542 9.49172 18.8923 9.39984C18.9304 9.30795 18.95 9.20947 18.95 9.11C18.95 9.01054 18.9304 8.91205 18.8923 8.82016C18.8542 8.72828 18.7984 8.6448 18.728 8.57451Z" fill="#B18FCF"/>
</svg>
